<?xml version="1.0" encoding="utf-8"?>
<!-- Generator: Adobe Illustrator 16.0.0, SVG Export Plug-In . SVG Version: 6.00 Build 0)  -->
<!DOCTYPE svg PUBLIC "-//W3C//DTD SVG 1.1//EN" "http://www.w3.org/Graphics/SVG/1.1/DTD/svg11.dtd">
<svg version="1.1" id="Layer_1" xmlns="http://www.w3.org/2000/svg" xmlns:xlink="http://www.w3.org/1999/xlink" x="0px" y="0px"
	 width="256px" height="256px" viewBox="0 0 256 256" enable-background="new 0 0 256 256" xml:space="preserve">
<path fill="#F68220" d="M0.337,234.191V45.716c0-5.982,2.08-11.054,6.233-15.208c4.153-4.161,9.225-6.234,15.2-6.234h34.411V8.313
	c0-2.317,0.74-4.227,2.25-5.73c1.489-1.497,3.406-2.252,5.73-2.252c2.34,0,4.243,0.755,5.724,2.252
	c1.51,1.502,2.251,3.413,2.251,5.73v15.962h47.878V8.313c0-2.317,0.74-4.227,2.25-5.73c1.488-1.497,3.399-2.252,5.73-2.252
	c2.332,0,4.234,0.755,5.73,2.252c1.5,1.502,2.241,3.413,2.241,5.73v15.962h47.88V8.313c0-2.317,0.745-4.227,2.241-5.73
	c1.488-1.497,3.407-2.252,5.738-2.252c2.317,0,4.233,0.755,5.737,2.252c1.48,1.502,2.237,3.413,2.237,5.73v15.962h34.411
	c5.975,0,11.055,2.073,15.207,6.234c4.162,4.154,6.241,9.226,6.241,15.208v188.477c0,5.982-2.079,11.048-6.241,15.209
	c-4.152,4.16-9.232,6.232-15.207,6.232H21.785c-5.99,0-11.061-2.072-15.215-6.232C2.417,245.239,0.337,240.175,0.337,234.191
	L0.337,234.191z M16.284,234.191c0,1.675,0.497,2.992,1.503,4c1,0.992,2.324,1.479,3.984,1.479h212.445
	c1.651,0,2.992-0.486,3.978-1.479c1.014-1.008,1.511-2.325,1.511-4V45.716c0-1.659-0.497-2.992-1.511-3.99
	c-0.984-1-2.325-1.489-3.978-1.489h-34.411v15.947c0,2.332-0.756,4.25-2.236,5.738c-1.502,1.495-3.428,2.244-5.746,2.244
	c-2.323,0-4.242-0.749-5.729-2.244c-1.511-1.488-2.251-3.405-2.251-5.738V40.237H135.97v15.947c0,2.332-0.741,4.25-2.241,5.738
	c-1.496,1.495-3.414,2.244-5.73,2.244c-2.332,0-4.25-0.749-5.73-2.244c-1.51-1.488-2.25-3.405-2.25-5.738V40.237H72.137v15.947
	c0,2.332-0.74,4.25-2.251,5.738c-1.48,1.495-3.384,2.244-5.724,2.244c-2.323,0-4.242-0.749-5.73-2.244
	c-1.51-1.488-2.25-3.405-2.25-5.738V40.237H21.771c-1.659,0-2.983,0.488-3.984,1.489c-1.006,0.998-1.503,2.332-1.503,3.99V234.191
	L16.284,234.191z M56.182,199.811v-23.943h31.916v23.943H56.182L56.182,199.811z M56.182,159.905v-23.943h31.916v23.943H56.182
	L56.182,159.905z M56.182,120.014V96.078h31.916v23.936H56.182L56.182,120.014z M112.035,199.811v-23.943h31.91v23.943H112.035z
	 M112.035,159.905v-23.943h31.91v23.943H112.035z M112.035,120.014V96.078h31.91v23.936H112.035L112.035,120.014z M167.881,199.811
	v-23.943h31.924v23.943H167.881z M167.881,159.905v-23.943h31.924v23.943H167.881z M167.881,120.014V96.078h31.924v23.936H167.881
	L167.881,120.014z"/>
</svg>
