<?xml version="1.0" encoding="utf-8"?>
<!-- Generator: Adobe Illustrator 16.0.0, SVG Export Plug-In . SVG Version: 6.00 Build 0)  -->
<!DOCTYPE svg PUBLIC "-//W3C//DTD SVG 1.1//EN" "http://www.w3.org/Graphics/SVG/1.1/DTD/svg11.dtd">
<svg version="1.1" id="Layer_1" xmlns="http://www.w3.org/2000/svg" xmlns:xlink="http://www.w3.org/1999/xlink" x="0px" y="0px"
	 width="254px" height="256px" viewBox="0 0 254 256" enable-background="new 0 0 254 256" xml:space="preserve">
<g>
	<path fill="#F68220" d="M93.633,0c1.406,0.173,2.82,0.381,4.231,0.526c16.528,1.722,31.385,7.68,44.525,17.798
		C157.168,29.702,167.378,44.361,173,62.139c3.029,9.58,4.257,19.44,3.895,29.508c-0.707,19.101-7.052,36.157-18.641,51.304
		c-0.311,0.396-0.636,0.795-0.955,1.183c-0.32,0.384-0.645,0.765-0.841,0.996c9.253,9.238,18.444,18.438,27.595,27.595
		c1.189-0.563,2.58-1.481,4.118-1.899c2.452-0.673,4.739-0.032,6.703,1.631c0.446,0.387,0.858,0.797,1.285,1.233
		c17.616,17.619,35.249,35.242,52.885,52.849c1.921,2.571,1.798,2.125,3.005,3.858c2.123,2.987,1.516,7.147-0.691,8.961
		c-1.15,1.69-10.133,9.781-13.762,13.595c-3.035,3.21-7.986,3.264-10.584,1.323c-0.652-0.461-1.217-1.043-1.781-1.618
		c-17.957-17.938-35.867-35.943-53.908-53.784c-3.646-3.611-4.502-8.49-0.797-12.35c-9.297-9.291-18.575-18.568-27.93-27.947
		c-1.685,1.171-3.546,2.535-5.473,3.793c-10.659,7.014-22.282,11.501-34.892,13.473c-7.417,1.16-14.858,1.416-22.3,0.686
		c-17.561-1.767-33.311-8.146-47.058-19.286c-13.857-11.226-23.456-25.382-28.848-42.388c-2.036-6.42-3.307-13.007-3.744-19.762
		C0.251,94.603,0.103,94.115,0,93.626c0-3.378,0-6.741,0-10.119c0.09-0.449,0.205-0.898,0.263-1.35
		c0.436-3.361,0.713-6.77,1.323-10.103c3.198-17.406,11.14-32.413,23.34-45.138c6.716-7.024,14.472-12.72,23.127-17.153
		c9.785-5.005,20.143-8.128,31.09-9.236c1.464-0.15,2.914-0.354,4.365-0.526C86.885,0,90.262,0,93.633,0z M88.496,158.316
		c38.461-0.031,69.855-31.005,69.88-69.893c0.021-39.055-32.267-71.113-72.492-69.778C49.453,19.867,17.36,50.442,18.678,90.973
		C19.851,127.518,49.883,158.234,88.496,158.316z"/>
</g>
</svg>
