<?xml version="1.0" encoding="utf-8"?>
<!-- Generator: Adobe Illustrator 16.0.0, SVG Export Plug-In . SVG Version: 6.00 Build 0)  -->
<!DOCTYPE svg PUBLIC "-//W3C//DTD SVG 1.1//EN" "http://www.w3.org/Graphics/SVG/1.1/DTD/svg11.dtd">
<svg version="1.1" id="Layer_1" xmlns="http://www.w3.org/2000/svg" xmlns:xlink="http://www.w3.org/1999/xlink" x="0px" y="0px"
	 width="151.5px" height="256px" viewBox="0 0 151.5 256" enable-background="new 0 0 151.5 256" xml:space="preserve">
<g>
	<path fill="#F68220" d="M99.293,256.171c-2.02-0.483-4.039-0.928-6.043-1.452c-9.748-2.586-17.434-8.104-23.136-16.412
		c-4.476-6.523-8.94-13.049-13.396-19.584c-13.465-19.774-26.871-39.584-40.448-59.271c-2.681-3.894-6.096-7.281-9.125-10.929
		c-1.595-1.926-3.236-3.834-4.572-5.944c-2.539-3.986-1.616-6.405,2.899-7.966c4.567-1.603,9.194-1.115,13.849-0.367
		c8.333,1.335,14.308,6.186,19.547,12.447c4.647,5.551,9.653,10.82,14.507,16.213c0.26,0.275,0.555,0.537,1.264,1.197
		c0-1.36,0-2.236,0-3.113c0-32.616-0.012-65.224,0.021-97.846c0.012-2.152,0.102-4.357,0.569-6.453
		c1.5-6.676,6.709-9.52,13.278-7.421c5.715,1.832,9.303,6.561,9.475,12.728c0.297,10.516,0.492,21.014,0.777,31.511
		c0.369,13.517,0.785,27.014,1.184,40.521c0,0.242,0.102,0.469,0.213,0.953c6.311,0.65,12.665,1.355,19.034,1.987
		c10.784,1.079,21.589,1.968,32.344,3.242c7.177,0.845,12.94,4.552,17.696,9.931c2.771,3.14,2.391,6.861,1.992,10.45
		c-2.166,19.894-4.459,39.761-6.774,59.63c-2.099,18.002-15.87,32.373-33.786,35.412c-0.632,0.111-1.238,0.356-1.865,0.534
		C105.637,256.171,102.463,256.171,99.293,256.171z"/>
	<path fill="#F68220" d="M68.743-0.167c3.812,0.814,7.692,1.402,11.435,2.472c28.998,8.329,47.859,35.958,44.684,65.906
		c-2.4,22.526-14.23,38.852-34.047,49.545c-0.512,0.28-1.057,0.494-1.605,0.708c-0.214,0.087-0.476,0.087-1.056,0.183
		c-0.171-4.699-0.414-9.329-0.414-13.956c0-0.714,1.009-1.6,1.767-2.101c11.104-7.492,18.2-17.708,20.938-30.833
		c6.367-30.459-17.768-59.083-48.893-58.033c-27.859,0.95-49.444,24.902-46.729,52.534c1.875,19.078,12.09,32.613,29.634,40.473
		c1.58,0.707,2.283,1.417,2.212,3.227c-0.146,3.903-0.041,7.823-0.041,12.407c-3.996-1.621-7.763-2.861-11.285-4.614
		C10.713,105.505-2.682,79.116,1.631,51.612C5.703,25.701,27.328,4.504,53.801,0.467c1.313-0.202,2.621-0.421,3.926-0.638
		C61.387-0.167,65.068-0.167,68.743-0.167z"/>
</g>
</svg>
