<?xml version="1.0" encoding="utf-8"?>
<!-- Generator: Adobe Illustrator 16.0.0, SVG Export Plug-In . SVG Version: 6.00 Build 0)  -->
<!DOCTYPE svg PUBLIC "-//W3C//DTD SVG 1.1//EN" "http://www.w3.org/Graphics/SVG/1.1/DTD/svg11.dtd">
<svg version="1.1" id="Layer_1" xmlns="http://www.w3.org/2000/svg" xmlns:xlink="http://www.w3.org/1999/xlink" x="0px" y="0px"
	 width="256px" height="228px" viewBox="0 0 256 228" enable-background="new 0 0 256 228" xml:space="preserve">
<g>
	<g>
		<path fill="#F68220" d="M256.004,0.249c0,58.575,0,120.418,0,179.424c-1.299,0-2.699,0-4.1,0
			c-13.621-0.016-27.256,0.052-40.894-0.094c-3.092-0.027-5.028,0.828-6.795,3.565c-8.823,13.689-17.896,27.232-26.881,40.816
			c-0.728,1.115-1.528,2.166-2.683,3.791c-5.242-16.326-10.311-32.145-15.43-48.105c-52.874,0-105.511,0-158.421,0
			c0-58.688,0-120.993,0-179.399 M244.793,164.591c0-50.861,0-101.191,0-152.014c-1.822,0-3.383,0-4.957,0
			c-12.295,0-24.588,0-36.882,0c-61.485,0-122.977,0.043-184.46-0.103c-4.106,0-5.082,1.102-5.068,5.148
			c0.153,47.454,0.103,94.912,0.117,142.367c0,1.424,0,2.838,0,4.577c2.158,0,3.733,0,5.322,0c46.376,0.009,92.766,0,139.141,0.029
			c3.59,0,8.125-1.104,10.502,0.648c2.393,1.742,2.668,6.408,3.791,9.828c2.319,7.045,4.588,14.096,7.073,21.768
			c1.271-1.766,2.144-2.904,2.933-4.098c5.389-8.131,10.879-16.189,16.057-24.457c1.803-2.859,3.834-3.822,7.152-3.777
			C218.471,164.698,231.422,164.591,244.793,164.591z"/>
	</g>
	<path fill="#F68220" d="M92.298,109.112c0,12.185-9.881,22.064-22.064,22.064c-12.192,0-22.064-9.881-22.064-22.064
		c0-12.184,9.872-22.064,22.064-22.064C82.417,87.046,92.298,96.926,92.298,109.112z"/>
	<circle fill="#F68220" cx="128.404" cy="109.112" r="22.062"/>
	<path fill="#F68220" d="M208.631,109.112c0,12.185-9.872,22.064-22.064,22.064c-12.178,0-22.063-9.881-22.063-22.064
		c0-12.184,9.887-22.064,22.063-22.064C198.759,87.046,208.631,96.926,208.631,109.112z"/>
</g>
<path fill="none" stroke="#3B58E2" stroke-miterlimit="10" d="M70.234,15.5"/>
<path fill="none" stroke="#3B58E2" stroke-miterlimit="10" d="M70.234,28.217"/>
</svg>
