<?xml version="1.0" encoding="utf-8"?>
<!-- Generator: Adobe Illustrator 16.0.0, SVG Export Plug-In . SVG Version: 6.00 Build 0)  -->
<!DOCTYPE svg PUBLIC "-//W3C//DTD SVG 1.1//EN" "http://www.w3.org/Graphics/SVG/1.1/DTD/svg11.dtd">
<svg version="1.1" id="Layer_1" xmlns="http://www.w3.org/2000/svg" xmlns:xlink="http://www.w3.org/1999/xlink" x="0px" y="0px"
	 width="256px" height="256px" viewBox="0 0 256 256" enable-background="new 0 0 256 256" xml:space="preserve">
<g>
	<path fill="#F68220" stroke="#E54E3A" stroke-width="0.5" stroke-miterlimit="10" d="M0.882,134.217c0-3.766,0-7.527,0-11.294
		c0.054-0.302,0.15-0.588,0.158-0.876c0.37-7.966,1.489-15.827,3.394-23.561c6.177-25.128,18.749-46.539,37.845-63.979
		c21.674-19.793,47.25-30.808,76.53-33.137c1.329-0.112,2.661-0.249,3.983-0.371c3.765,0,7.528,0,11.288,0
		c0.324,0.069,0.646,0.159,0.975,0.166c6.578,0.31,13.102,1.135,19.545,2.511c25.467,5.467,47.316,17.547,65.484,36.212
		c10.575,10.864,18.891,23.262,25.016,37.12c6.055,13.699,9.57,28.009,10.539,42.953c0.104,1.588,0.242,3.175,0.361,4.776
		c0,2.479,0,4.975,0,7.457c-0.059,0.26-0.146,0.515-0.158,0.771c-0.414,4.64-0.642,9.313-1.27,13.925
		c-1.914,14.076-6.176,27.459-12.784,40.037c-14.703,27.987-36.708,48.021-65.961,60.014c-12.412,5.08-25.375,7.937-38.765,8.812
		c-1.666,0.122-3.328,0.257-4.998,0.377c-2.412,0-4.833,0-7.241,0c-0.304-0.055-0.591-0.161-0.877-0.161
		c-8.762-0.242-17.387-1.438-25.878-3.525c-22.861-5.668-42.697-16.797-59.459-33.355c-10.471-10.311-18.861-22.146-25.227-35.396
		c-7.183-14.967-11.221-30.735-12.287-47.291C1.042,135.655,0.95,134.932,0.882,134.217z M9.305,128.504
		c0,65.667,53.246,119.102,118.73,119.159c65.892,0.063,119.431-53.192,119.506-118.812c0.086-66.735-54.46-120.479-121.087-119.43
		C61.733,10.443,9.229,63.379,9.305,128.504z"/>
	<path fill="#F68220" stroke="#E54E3A" stroke-width="0.5" stroke-miterlimit="10" d="M68.686,142.068
		c0.097,0.396,0.165,0.682,0.25,0.97c3.031,10.248,8.769,18.791,16.555,26.006c7.552,6.985,16.223,12.171,25.855,15.785
		c12.572,4.729,25.532,6.685,38.919,5.502c8.201-0.724,16.139-2.601,23.875-5.414c16.055-5.849,29.121-15.479,38.078-30.247
		c1.178-1.939,2.145-4.025,3.145-6.066c0.426-0.894,0.188-1.814-0.514-2.494c-1.527-1.471-3.44-2.271-5.347-3.191
		c-0.513,0.832-0.981,1.557-1.427,2.297c-2.497,4.158-5.377,8.031-8.665,11.6c-6.677,7.213-14.72,12.475-23.535,16.633
		c-7.953,3.765-16.315,6.092-25.069,7.017c-8.229,0.863-16.41,0.378-24.538-1.168c-9.375-1.782-18.25-4.899-26.408-9.918
		c-8.876-5.471-15.74-12.88-21.244-21.666c-1.208-1.937-2.479-3.823-3.764-5.714c-0.545-0.816-1.143-1.693-2.329-1.332
		C71.248,141.053,70.016,141.584,68.686,142.068z M170.252,75.748c0.813,0,1.363-0.009,1.921,0c0.606,0,1.218-0.03,1.813,0.044
		c10.723,1.264,20.664,4.764,29.863,10.419c4.959,3.046,9.313,6.69,12.284,11.801c0.183,0.31,0.407,0.592,0.665,0.953
		c0.159-0.264,0.297-0.415,0.372-0.589c1.261-3.01,2.567-5.979,3.713-9.027c0.24-0.634,0.091-1.678-0.296-2.26
		c-3.052-4.567-6.84-8.423-11.461-11.454c-4.232-2.781-8.91-4.475-13.736-5.836c-5.186-1.474-10.455-2.382-15.865-2.375
		c-1.846,0.008-3.297,0.742-4.303,2.344c-0.389,0.614-0.914,1.156-1.386,1.717C172.693,72.845,171.547,74.205,170.252,75.748z
		 M111.316,73.903c-2.213-2.563-4.227-4.953-6.313-7.265c-0.338-0.393-1.035-0.666-1.571-0.658
		c-5.624,0.061-11.151,0.762-16.594,2.261c-7.515,2.07-14.47,5.157-20.087,10.726c-1.686,1.672-3.234,3.495-4.725,5.348
		c-1.286,1.608-1.49,3.401-0.295,5.224c0.271,0.409,0.407,0.915,0.597,1.375c0.841,2.073,1.679,4.137,2.594,6.397
		c0.46-0.589,0.787-1.043,1.148-1.467c1.83-2.138,3.439-4.521,5.542-6.35c9.647-8.399,21.159-12.708,33.61-14.788
		C107.167,74.379,109.138,74.184,111.316,73.903z"/>
</g>
</svg>
