<?xml version="1.0" encoding="utf-8"?>
<!-- Generator: Adobe Illustrator 16.0.0, SVG Export Plug-In . SVG Version: 6.00 Build 0)  -->
<!DOCTYPE svg PUBLIC "-//W3C//DTD SVG 1.1//EN" "http://www.w3.org/Graphics/SVG/1.1/DTD/svg11.dtd">
<svg version="1.1" id="Layer_1" xmlns="http://www.w3.org/2000/svg" xmlns:xlink="http://www.w3.org/1999/xlink" x="0px" y="0px"
	 width="256px" height="256px" viewBox="0 0 256 256" enable-background="new 0 0 256 256" xml:space="preserve">
<g>
	<g>
		<path fill="#F68220" d="M-0.226,128.024C-0.219,56.96,57.144-0.098,128.548-0.069C198.635-0.053,256.27,57.827,256.24,128.127
			c-0.03,70.671-57.504,127.938-128.412,127.975C56.937,256.169-0.232,198.979-0.226,128.024z M127.874,241.705
			c62.64-0.066,113.992-51.278,113.962-113.613C241.794,65.751,190.4,14.465,127.861,14.345
			C64.948,14.227,14.119,65.669,14.196,129.391C14.257,190.924,65.74,241.786,127.874,241.705z"/>
	</g>
	<g>
		<g>
			<path fill="#F68220" d="M196.439,153.68c-12.307,0-25.482-29.048-25.482-72.315c0-23.683-19.266-42.958-42.949-42.958
				c-23.675,0-42.958,19.275-42.958,42.958c0,43.268-13.176,72.315-25.477,72.315c-1.601,0-2.904,1.305-2.904,2.94v18.178
				c0,1.638,1.303,2.935,2.904,2.935h42.4c1.468,13.07,12.569,23.289,26.032,23.289c13.464,0,24.579-10.219,26.039-23.289h42.394
				c1.602,0,2.905-1.297,2.905-2.935V156.62C199.348,155.006,198.042,153.68,196.439,153.68z M128.007,194.121
				c-9.006,0-16.471-6.678-17.721-15.327h35.435C144.479,187.443,137.016,194.121,128.007,194.121z M189.627,168.098H149.92h-43.818
				H66.375v-11.925c15.194-3.368,26.708-34.312,26.708-73.222c0-19.25,15.668-34.925,34.925-34.925
				c19.249,0,34.917,15.674,34.917,34.925c0,38.911,11.526,69.876,26.701,73.222L189.627,168.098L189.627,168.098z"/>
		</g>
	</g>
</g>
</svg>
