<?xml version="1.0" encoding="utf-8"?>
<!-- Generator: Adobe Illustrator 16.0.0, SVG Export Plug-In . SVG Version: 6.00 Build 0)  -->
<!DOCTYPE svg PUBLIC "-//W3C//DTD SVG 1.1//EN" "http://www.w3.org/Graphics/SVG/1.1/DTD/svg11.dtd">
<svg version="1.1" id="Layer_1" xmlns="http://www.w3.org/2000/svg" xmlns:xlink="http://www.w3.org/1999/xlink" x="0px" y="0px"
	 width="206px" height="256px" viewBox="0 0 206 256" enable-background="new 0 0 206 256" xml:space="preserve">
<g>
	<path fill="#F68220" d="M179.566,140.979c0,29.502,0.029,59.008-0.017,88.513c-0.014,12.546-7.144,22.381-18.503,25.521
		c-2.154,0.604-4.454,0.945-6.693,0.959c-43.018,0.047-86.034,0.031-129.05,0.031c-15.652,0-25.177-13.874-25.125-24.948
		c0.302-60.188,0.14-120.364,0.15-180.551c0-13.528,11.005-24.712,24.6-24.727c43.209-0.059,86.425-0.059,129.64,0
		c14.277,0.015,24.972,11.493,24.983,26.702C179.596,81.981,179.566,111.478,179.566,140.979z M163.082,141.125
		c0-29.301,0-58.606,0-87.911c0.007-7.764-3.171-11.028-10.868-11.028c-41.541-0.007-83.083-0.007-124.619,0
		c-7.889,0-11.161,3.243-11.161,11.117c-0.008,58.411-0.008,116.826,0,175.244c0,7.784,3.199,10.996,10.917,10.996
		c41.632,0,83.27,0,124.905,0c7.535,0,10.823-3.271,10.823-10.792C163.082,199.543,163.082,170.334,163.082,141.125z"/>
	<path fill="#F68220" d="M205.98,114.706c0,24.208,0.006,48.418-0.01,72.628c-0.006,5.677-4.334,9.126-9.363,7.521
		c-2.889-0.93-4.405-3.039-4.803-5.975c-0.125-0.93-0.061-1.873-0.061-2.801c0-47.047,0.015-94.104,0-141.161
		c-0.018-14.803-9.645-26.71-24.078-29.652c-2.471-0.501-5.057-0.613-7.592-0.62c-31.93-0.044-63.873-0.03-95.811-0.03
		c-1.017,0-2.035,0.037-3.037-0.067c-3.634-0.346-6.185-3.19-6.207-6.855c-0.03-3.738,2.625-6.738,6.295-7.062
		c0.84-0.082,1.696-0.044,2.55-0.044c32.607,0,65.214,0,97.83,0c24.713,0,44.195,19.329,44.271,44.049
		C206.032,67.995,205.98,91.35,205.98,114.706z"/>
	<path fill="#F68220" d="M89.418,133.354c16.159,0,32.335,0,48.501,0c0.788,0,1.583,0.029,2.367-0.014
		c3.315-0.135,5.64-1.73,5.608-3.824c-0.022-2.102-2.336-3.657-5.771-3.669c-10.256-0.044-20.512-0.022-30.758-0.022
		c-22.484,0-44.956,0-67.44,0c-0.781,0-1.578-0.015-2.359,0.007c-3.547,0.096-5.958,1.667-5.913,3.835
		c0.03,2.152,2.463,3.676,6.075,3.688C56.288,133.368,72.854,133.354,89.418,133.354z M89.846,79.002
		c-16.763,0-33.521-0.014-50.277,0.015c-3.45,0-5.781,1.474-5.913,3.576c-0.132,2.085,2.108,3.702,5.478,3.921
		c0.782,0.052,1.571,0.022,2.366,0.022c32.135,0,64.271,0,96.414-0.008c1.37,0,2.786-0.037,4.084-0.287
		c2.632-0.488,4.188-2.197,3.876-3.973c-0.31-1.784-2.409-3.119-5.16-3.252c-0.778-0.035-1.577-0.015-2.356-0.015
		C122.182,79.002,106.014,79.002,89.846,79.002z M89.773,171.898c-16.072,0-32.134,0-48.207,0c-0.979,0-1.983-0.033-2.957,0.043
		c-2.817,0.205-4.88,1.74-4.955,3.625c-0.073,1.899,1.821,3.465,4.675,3.787c0.87,0.09,1.769,0.09,2.655,0.09
		c32.429,0,64.859,0,97.295-0.015c1.271,0,2.591-0.03,3.8-0.266c2.444-0.44,4.002-2.106,3.812-3.833
		c-0.191-1.727-2.095-3.127-4.66-3.363c-0.974-0.104-1.969-0.07-2.947-0.07C122.105,171.898,105.939,171.898,89.773,171.898z"/>
	<path fill="#F68220" d="M89.568,202.787c-16.367,0-32.733,0-49.1,0c-4.35,0-6.87-1.389-6.818-3.762
		c0.06-2.328,2.655-3.758,6.952-3.758c32.828-0.018,65.654,0,98.492-0.018c2.641,0,5.205,0.354,6.092,2.139
		c0.545,1.105,0.321,2.627-0.369,3.73c-0.93,1.486-3.26,1.68-5.563,1.68C122.684,202.77,106.123,202.787,89.568,202.787z"/>
	<path fill="#F68220" d="M89.639,109.869c-16.563,0-33.129,0.016-49.688,0c-5.028-0.007-7.859-2.919-5.515-5.626
		c1.363-1.569,3.567-1.923,6.09-1.917c13.211,0.022,26.421,0.008,39.633,0.008c19.417,0,38.835,0,58.261,0.015
		c1.264,0,2.588,0.037,3.783,0.272c2.484,0.518,4.023,2.182,3.654,3.894c-0.403,1.835-1.959,3.029-4.762,3.295
		c-0.974,0.095-1.975,0.06-2.957,0.06C121.975,109.869,105.8,109.869,89.639,109.869z"/>
	<path fill="#F68220" d="M89.721,148.409c16.167,0,32.341,0,48.501,0c0.891,0,1.782-0.046,2.661,0.028
		c2.94,0.207,5.063,1.845,5.011,3.805c-0.049,1.963-2.218,3.51-5.194,3.674c-0.886,0.059-1.771,0.014-2.662,0.014
		c-32.532,0-65.066,0-97.599,0.014c-4.305,0-6.856-1.426-6.783-3.801c0.06-2.287,2.61-3.729,6.673-3.729
		C56.791,148.409,73.26,148.409,89.721,148.409z"/>
</g>
</svg>
