<?xml version="1.0" encoding="utf-8"?>
<!-- Generator: Adobe Illustrator 16.0.0, SVG Export Plug-In . SVG Version: 6.00 Build 0)  -->
<!DOCTYPE svg PUBLIC "-//W3C//DTD SVG 1.1//EN" "http://www.w3.org/Graphics/SVG/1.1/DTD/svg11.dtd">
<svg version="1.1" id="Layer_1" xmlns="http://www.w3.org/2000/svg" xmlns:xlink="http://www.w3.org/1999/xlink" x="0px" y="0px"
	 width="256px" height="161px" viewBox="0 0 256 161" enable-background="new 0 0 256 161" xml:space="preserve">
<g>
	<path fill="#F68220" stroke="#E54E3A" stroke-miterlimit="10" d="M69.315,22.771c8.086,2.847,15.589,7.473,24.631,3.44
		c2.37-1.056,5.289-0.863,7.948-1.32c0.525-0.093,1.035-0.48,1.473-0.834c13.409-10.715,28.591-12.305,44.71-8.484
		c8.772,2.075,17.507,4.363,26.157,6.904c4.283,1.262,8.149,0.992,11.996-1.055c-0.656-7.981-0.246-8.655,7.293-11.834
		c6.934-2.92,13.854-5.86,20.804-8.734c5.19-2.155,8.731-0.736,10.903,4.436c9.808,23.365,19.59,46.744,29.351,70.13
		c2.174,5.221,0.765,8.578-4.522,10.832c-7.664,3.27-15.349,6.486-23.054,9.657c-5.284,2.179-8.626,0.747-10.834-4.456
		c-0.808-1.904-1.649-3.799-2.856-6.572c-5.098,4.531-9.988,8.813-14.76,13.219c-0.488,0.449-0.313,1.668-0.371,2.541
		c-0.213,2.992,0,6.076-0.658,8.961c-1.618,7.162-5.897,11.922-13.522,12.963c-0.313,1.521-0.579,2.865-0.862,4.211
		c-1.328,6.162-5.806,10.549-12.025,11.384c-1.84,0.245-2.764,0.766-3.52,2.542c-2.697,6.3-7.765,9.313-14.523,9.343
		c-1.854,0.011-2.834,0.558-3.848,2.14c-4.889,7.604-11.234,9.422-19.447,5.985c-1.063-0.44-2.623-0.276-3.765,0.117
		c-6.628,2.325-13.165,2.405-19.612-0.511c-3.65-1.641-6.217-4.278-7.439-8.243c-0.276-0.896-1.521-1.688-2.493-2.132
		c-3.237-1.44-6.879-2.235-9.744-4.178c-2.115-1.442-4.298-4.184-4.594-6.565c-0.451-3.671-2.217-5.259-5.102-6.828
		c-3.7-2.021-5.118-5.83-7.174-9.373c-1.83-3.16-7.168-4.515-7.071-9.106c0.143-6.81-4.573-9.566-9.161-12.541
		c-4.161-2.699-8.508-5.103-12.953-7.742c-0.324,0.617-0.688,1.295-1.051,1.975c-2.1,3.902-5.485,5.277-9.646,3.59
		c-8.145-3.307-16.265-6.691-24.347-10.166C1.018,84.482-0.42,80.892,1.513,76.25c9.843-23.602,19.725-47.188,29.642-70.761
		c2.055-4.888,5.441-6.305,10.348-4.317c8.046,3.257,16.06,6.589,24.033,10.013C70.262,13.213,71.229,16.113,69.315,22.771z
		 M179.305,119.729c3.846-1.502,7.78-2.101,10.43-4.277c4.199-3.453,5.266-8.881,4.221-14.033
		c-1.58-7.762-5.878-13.955-12.102-19.168c-13.136-11.007-27.297-20.206-43.09-26.923c-3.041-1.291-5.682-3.513-8.619-5.088
		c-1.563-0.838-3.396-1.712-5.094-1.688c-5.677,0.076-10.339,2.709-14.686,6.255c-4.102,3.349-8.268,6.826-12.935,9.21
		c-5.948,3.037-12.365,2.924-18.267-0.746c-5.059-3.148-5.889-7.915-1.806-12.222c3.411-3.602,7.193-6.918,11.153-9.912
		c4.219-3.188,7.222-7.152,9.602-12.167c-9.716,5.805-18.739,2.267-27.763-1.345c-0.108-0.043-0.231-0.053-0.33-0.112
		c-1.894-1.177-2.815-0.427-3.61,1.482c-7.635,18.371-15.3,36.731-23.091,55.033c-1.031,2.424-0.181,3.533,1.678,4.709
		c6.437,4.063,12.835,8.195,18.852,12.041c2.93-1.334,5.79-3.219,8.905-3.885c3.337-0.707,6.924-0.385,10.393-0.295
		c6.839,0.178,11.465,3.473,15.126,9.383c2.855,4.611,7.184,8.32,10.868,12.412c0.143,0.168,0.398,0.246,0.614,0.324
		c5.922,2.121,9.116,6.789,11.731,12.147c0.644,1.325,2.086,2.64,3.46,3.161c4.513,1.735,7.689,4.721,8.151,9.488
		c0.342,3.524-0.467,7.153-0.781,10.991c6.269,3.308,10.358,1.068,15.94-9.399c3.845,1.149,8.099,1.844,11.185-1.051
		c2.775-2.603,4.556-6.271,7.047-9.884C175.79,134.948,179.852,130.484,179.305,119.729z M211.707,80.848
		c-7.659-18.28-15.416-36.792-23.404-55.838c-8.615,5.152-16.496,0.676-24.578-1.197c-8.101-1.879-16.168-3.979-24.343-5.466
		c-11.796-2.14-22.501,1.051-32.12,7.974c-1.52,1.094-2.762,2.793-3.688,4.455c-3.248,5.81-6.801,11.231-12.463,15.117
		c-3.317,2.276-6.262,5.157-9.146,7.993c-2.527,2.488-2.178,3.854,1.069,5.433c4.411,2.149,8.99,1.812,13.027-0.511
		c3.871-2.223,7.415-5.113,10.79-8.071c4.406-3.866,9.451-6.325,15.084-7.42c3.931-0.764,7.797-0.289,11.235,2.293
		c2.385,1.786,4.878,3.592,7.596,4.726c11.512,4.798,22.269,10.906,32.271,18.27c6.021,4.434,11.863,9.203,17.248,14.395
		c2.865,2.769,4.581,6.729,6.928,10.313C201.717,89.441,206.48,85.341,211.707,80.848z M37.668,4.146
		c-0.889,0.978-2.258,1.899-2.797,3.176C25.052,30.55,15.351,53.825,5.568,77.069c-1.246,2.945-0.716,4.701,2.399,5.947
		c7.415,2.953,14.734,6.152,22.094,9.226c4.034,1.688,4.849,1.346,6.545-2.72c9.623-22.935,19.233-45.867,28.852-68.805
		c1.511-3.606,1.02-4.794-2.722-6.354c-7.258-3.027-14.53-6.026-21.802-9.023C40.081,4.99,39.207,4.704,37.668,4.146z
		 M222.34,92.898c1.35-0.256,1.838-0.266,2.251-0.438c8.333-3.478,16.675-6.901,24.956-10.481c2.039-0.884,2.258-2.62,1.355-4.689
		c-2.227-5.082-4.289-10.231-6.438-15.354c-7.597-18.139-15.19-36.278-22.806-54.409c-1.633-3.891-2.443-4.21-6.307-2.611
		c-7.369,3.062-14.744,6.12-22.078,9.254c-3.609,1.545-3.969,2.581-2.486,6.117c3.218,7.679,6.443,15.354,9.664,23.032
		c6.39,15.245,12.738,30.506,19.193,45.727C220.293,90.552,221.559,91.8,222.34,92.898z M103.417,143.753
		c-0.879,6.522,1.158,9.972,7.438,11.256c3.522,0.716,7.346,0.589,10.952,0.158c3.797-0.461,6.495-4.69,6.397-8.91
		c-0.098-4.104-2.042-6.412-6.397-7.344c-2.591-0.548-4.073-1.728-4.947-4.515c-1.6-5.063-4.377-9.352-10.079-11.02
		c-1.394-0.402-2.669-2.102-3.44-3.504c-1.526-2.785-2.928-5.377-6.275-6.518c-1.197-0.402-2.345-1.912-2.86-3.188
		c-2.218-5.427-6.051-8.318-11.954-8.304c-2.89,0.021-5.78,0.028-8.661,0.235c-2.816,0.194-6.742,3.474-7.172,5.752
		c-0.561,2.934,1.315,5.75,4.591,7.789c1.335,0.836,2.807,2.325,3.136,3.758c1.054,4.651,4.253,6.961,8.208,8.656
		c1.433,0.618,2.953,1.03,4.436,1.539C83.583,138.372,89.369,143.253,103.417,143.753z"/>
	<path fill="#F68220" stroke="#E54E3A" stroke-miterlimit="10" d="M228.213,81.691c2.954-0.106,5.123-2.551,4.965-5.574
		c-0.146-2.825-2.503-5.014-5.27-4.895c-2.953,0.128-5.186,2.6-5.004,5.554C223.07,79.562,225.486,81.79,228.213,81.691z"/>
	<path fill="#F68220" stroke="#E54E3A" stroke-miterlimit="10" d="M33.35,76.97c-0.04,2.865-2.173,4.986-5.063,5.017
		c-3.066,0.029-5.251-2.159-5.202-5.221c0.049-2.848,2.227-5.044,5.054-5.093C31.052,71.623,33.388,73.997,33.35,76.97z"/>
	<path fill="#F68220" stroke="#E54E3A" stroke-miterlimit="10" d="M228.213,81.691c-2.727,0.099-5.143-2.13-5.309-4.917
		c-0.182-2.955,2.051-5.426,5.004-5.555c2.77-0.118,5.123,2.07,5.27,4.896C233.336,79.141,231.167,81.585,228.213,81.691z"/>
</g>
</svg>
